<svg width="310" height="200" viewBox="0 0 310 200" fill="none" xmlns="http://www.w3.org/2000/svg">
<path d="M0.243988 0.889375V199.056H3.17866L116.628 0.889375H0.243988Z" fill="#537FC9"/>
<path d="M111.715 0.889375L0.243988 199.056H309.456V0.889375H111.715Z" fill="#0D0B09"/>
<path d="M125.893 106.972C120.848 103.255 115.711 101.392 110.489 101.392C99.9987 101.392 94.7507 105.364 94.7507 113.297C94.7507 116.656 97.5413 120.665 103.092 125.327L112.929 133.7C115.965 136.308 118.072 138.216 119.24 139.412C120.423 140.607 121.653 142.275 122.964 144.405C124.264 146.541 125.241 148.699 125.888 150.872C126.541 153.044 126.871 155.268 126.871 157.533C126.871 166.287 123.596 173.116 117.059 178.035C110.511 182.957 102.025 185.408 91.588 185.408C83.0347 185.408 74.9467 183.556 67.3373 179.839L72.8293 163.129C78.6453 167.525 85.4053 169.725 93.1 169.725C97.7547 169.725 101.612 168.739 104.673 166.753C107.741 164.767 109.273 161.94 109.273 158.284C109.273 154.665 106.483 150.671 100.916 146.313L90.6707 138.141C87.5387 135.613 85.4173 133.788 84.308 132.652C83.1987 131.527 82.0307 129.94 80.8213 127.913C79.5947 125.887 78.6827 123.817 78.0773 121.676C77.468 119.535 77.1653 117.34 77.1653 115.069C77.1653 106.267 80.084 99.2986 85.916 94.16C91.752 89.0213 99.3987 86.444 108.844 86.444C111.975 86.444 115.987 86.7974 120.857 87.5187C125.74 88.2374 129.157 89.052 131.12 89.96L125.893 106.972" fill="white"/>
<path d="M175.597 185.113H166.355L147.151 88.204H165.288L176.776 151.371L210.291 88.204H229.256L175.597 185.113Z" fill="white"/>
<path d="M264.628 152.851H239.577L259.184 117.249L264.628 152.851ZM287.281 185.105L267.479 88.1907H261.472L203.399 185.105H221.148L232.349 165.605H266.523L269.531 185.105H287.281Z" fill="white"/>
</svg>
